<?xml version="1.0" encoding="UTF-8" standalone="no"?>
<svg
   xmlns:dc="http://purl.org/dc/elements/1.1/"
   xmlns:cc="http://creativecommons.org/ns#"
   xmlns:rdf="http://www.w3.org/1999/02/22-rdf-syntax-ns#"
   xmlns:svg="http://www.w3.org/2000/svg"
   xmlns="http://www.w3.org/2000/svg"
   xmlns:sodipodi="http://sodipodi.sourceforge.net/DTD/sodipodi-0.dtd"
   xmlns:inkscape="http://www.inkscape.org/namespaces/inkscape"
   width="432"
   height="88"
   viewBox="0 0 114.3 23.283334"
   version="1.1"
   id="svg621"
   inkscape:version="1.0.1 (3bc2e813f5, 2020-09-07)"
   sodipodi:docname="spriteboardLogo.svg">
  <defs
     id="defs615" />
  <sodipodi:namedview
     id="base"
     pagecolor="#808080"
     bordercolor="#666666"
     borderopacity="1.0"
     inkscape:pageopacity="0"
     inkscape:pageshadow="2"
     inkscape:zoom="1.4142136"
     inkscape:cx="80.641524"
     inkscape:cy="1.5135523"
     inkscape:document-units="px"
     inkscape:current-layer="layer1"
     inkscape:document-rotation="0"
     showgrid="false"
     units="px"
     inkscape:snap-center="true"
     fit-margin-top="0"
     fit-margin-left="0"
     fit-margin-right="0"
     fit-margin-bottom="0"
     inkscape:snap-global="false"
     inkscape:window-width="1920"
     inkscape:window-height="1017"
     inkscape:window-x="-8"
     inkscape:window-y="-8"
     inkscape:window-maximized="1" />
  <metadata
     id="metadata618">
    <rdf:RDF>
      <cc:Work
         rdf:about="">
        <dc:format>image/svg+xml</dc:format>
        <dc:type
           rdf:resource="http://purl.org/dc/dcmitype/StillImage" />
        <dc:title></dc:title>
      </cc:Work>
    </rdf:RDF>
  </metadata>
  <g
     inkscape:label="Logo"
     inkscape:groupmode="layer"
     id="layer1"
     transform="translate(-59.115482,-128.96547)">
    <g
       id="g1497"
       transform="matrix(1.9999998,0,0,1.9999994,30.011329,-441.75096)">
      <path
         style="opacity:1;vector-effect:none;fill:#000000;fill-opacity:1;stroke:none;stroke-width:0.330591px;stroke-linecap:butt;stroke-linejoin:miter;stroke-miterlimit:4;stroke-dasharray:none;stroke-dashoffset:0;stroke-opacity:1"
         d="m 14.552078,285.3583 h 57.150007 v 11.64167 H 14.552078 Z"
         id="path1424"
         inkscape:connector-curvature="0" />
      <path
         style="opacity:1;vector-effect:none;fill:#ffffff;fill-opacity:1;stroke:none;stroke-width:0.220394px;stroke-linecap:butt;stroke-linejoin:miter;stroke-miterlimit:4;stroke-dasharray:none;stroke-dashoffset:0;stroke-opacity:1"
         d="m 48.418746,286.41664 h 22.225009 v 9.525 H 48.418746 Z"
         id="path1426"
         inkscape:connector-curvature="0" />
      <g
         id="g1452"
         transform="translate(-323.05623,105.83333)">
        <path
           id="path1428"
           transform="matrix(0.26458333,0,0,0.26458333,0,-1.8097168e-5)"
           d="m 1320,686.51953 a 4.0000017,3.9999726 0 0 0 -4,4 v 4 4 a 3.9999726,4.0000017 0 0 0 4,4 h 4 v 4 4 h -4 v -4 h -4 v 4 a 3.9999726,4.0000017 0 0 0 4,4 h 4 a 4.0000017,3.9999726 0 0 0 4,-4 v -4 -4 a 3.9999726,4.0000017 0 0 0 -4,-4 h -4 v -4 -4 h 4 v 4 h 4 v -4 a 3.9999726,4.0000019 0 0 0 -4,-4 z"
           style="opacity:1;vector-effect:none;fill:#ffffff;fill-opacity:1;fill-rule:evenodd;stroke:none;stroke-width:0.999997;stroke-linecap:butt;stroke-linejoin:miter;stroke-miterlimit:4;stroke-dasharray:none;stroke-dashoffset:0;stroke-opacity:1"
           inkscape:connector-curvature="0" />
        <path
           id="path1430"
           transform="matrix(0.26458333,0,0,0.26458333,0,-1.8097168e-5)"
           d="m 1332,686.51953 v 4 4 4 4 4 4 4 h 4 v -4 -4 -4 -4 -4 -4 h 4 v 4 4 h -2 v 4 h 2 a 4.0000017,3.9999726 0 0 0 4,-4 v -4 -4 a 3.9999726,4.0000017 0 0 0 -4,-4 h -4 z"
           style="opacity:1;vector-effect:none;fill:#ffffff;fill-opacity:1;fill-rule:evenodd;stroke:none;stroke-width:0.999997;stroke-linecap:butt;stroke-linejoin:miter;stroke-miterlimit:4;stroke-dasharray:none;stroke-dashoffset:0;stroke-opacity:1"
           inkscape:connector-curvature="0" />
        <path
           id="path1432"
           transform="matrix(0.26458333,0,0,0.26458333,0,-1.8097168e-5)"
           d="m 1348,686.51953 v 4 4 4 4 4 4 4 h 4 v -4 -4 -4 -4 -4 -4 h 4 v 4 4 h -2 v 4 h 2 a 4.0000017,3.9999726 0 0 0 4,-4 v -4 -4 a 3.9999726,4.0000017 0 0 0 -4,-4 h -4 z m 8,16 v 4 4 4 h 4 v -4 -4 a 3.9999726,4.0000017 0 0 0 -4,-4 z"
           style="opacity:1;vector-effect:none;fill:#ffffff;fill-opacity:1;fill-rule:evenodd;stroke:none;stroke-width:0.999997;stroke-linecap:butt;stroke-linejoin:miter;stroke-miterlimit:4;stroke-dasharray:none;stroke-dashoffset:0;stroke-opacity:1"
           inkscape:connector-curvature="0" />
        <path
           id="path1434"
           transform="matrix(0.26458333,0,0,0.26458333,0,-1.8097168e-5)"
           d="m 1364,686.51953 v 4 4 4 4 4 4 4 h 4 v -4 -4 -4 -4 -4 -4 -4 z"
           style="opacity:1;vector-effect:none;fill:#ffffff;fill-opacity:1;stroke:none;stroke-width:0.832986px;stroke-linecap:butt;stroke-linejoin:miter;stroke-miterlimit:4;stroke-dasharray:none;stroke-dashoffset:0;stroke-opacity:1"
           inkscape:connector-curvature="0" />
        <path
           id="path1436"
           transform="matrix(0.26458333,0,0,0.26458333,0,-1.8097168e-5)"
           d="m 1372,686.51953 v 4 h 4 v 4 4 4 4 4 4 h 4 v -4 -4 -4 -4 -4 -4 h 4 v -4 h -4 -4 z"
           style="opacity:1;vector-effect:none;fill:#ffffff;fill-opacity:1;stroke:none;stroke-width:0.832986px;stroke-linecap:butt;stroke-linejoin:miter;stroke-miterlimit:4;stroke-dasharray:none;stroke-dashoffset:0;stroke-opacity:1"
           inkscape:connector-curvature="0" />
        <path
           id="path1440"
           transform="matrix(0.26458333,0,0,0.26458333,0,-1.8097168e-5)"
           d="m 1388,686.51953 v 4 4 4 4 4 4 4 h 4 4 4 v -4 h -4 -4 v -4 -4 h 2 4 v -4 h -4 -2 v -4 -4 h 4 4 v -4 h -4 -4 z"
           style="opacity:1;vector-effect:none;fill:#ffffff;fill-opacity:1;stroke:none;stroke-width:0.832986px;stroke-linecap:butt;stroke-linejoin:miter;stroke-miterlimit:4;stroke-dasharray:none;stroke-dashoffset:0;stroke-opacity:1"
           inkscape:connector-curvature="0" />
        <path
           id="path1442"
           transform="matrix(0.26458333,0,0,0.26458333,0,-1.8097168e-5)"
           d="m 1408,686.51953 v 4 4 4 4 4 4 4 h 4 4 a 4.0000017,3.9999726 0 0 0 4,-4 v -4 -4 a 3.9999726,4.0000017 0 0 0 -4,-4 h -2 v 4 h 2 v 4 4 h -4 v -4 -4 -4 -4 -4 h 4 v 4 4 a 4.0000017,3.9999726 0 0 0 4,-4 v -4 a 3.9999726,4.0000017 0 0 0 -4,-4 h -4 z"
           style="opacity:1;vector-effect:none;fill:#000000;fill-opacity:1;fill-rule:evenodd;stroke:none;stroke-width:0.999997;stroke-linecap:butt;stroke-linejoin:miter;stroke-miterlimit:4;stroke-dasharray:none;stroke-dashoffset:0;stroke-opacity:1"
           inkscape:connector-curvature="0" />
        <path
           id="path1444"
           transform="matrix(0.26458333,0,0,0.26458333,0,-1.8097168e-5)"
           d="m 1428,686.51953 a 3.9999726,4.0000017 0 0 0 -4,4 v 4 4 4 4 4 a 4.0000017,3.9999726 0 0 0 4,4 h 4 a 4.0000017,3.9999726 0 0 0 4,-4 v -4 -4 -4 -4 -4 a 3.9999726,4.0000017 0 0 0 -4,-4 z m 0,4 h 4 v 4 4 4 4 4 h -4 v -4 -4 -4 -4 z"
           style="opacity:1;vector-effect:none;fill:#000000;fill-opacity:1;fill-rule:evenodd;stroke:none;stroke-width:0.999997;stroke-linecap:butt;stroke-linejoin:miter;stroke-miterlimit:4;stroke-dasharray:none;stroke-dashoffset:0;stroke-opacity:1"
           inkscape:connector-curvature="0" />
        <path
           id="path1446"
           transform="matrix(0.26458333,0,0,0.26458333,0,-1.8097168e-5)"
           d="m 1444,686.51953 a 3.9999726,4.0000017 0 0 0 -4,4 v 4 4 4 4 4 4 h 4 v -4 -4 -4 -4 -4 -4 h 4 v 4 4 h -2 v 4 h 2 v 4 4 4 h 4 v -4 -4 -4 -4 -4 -4 a 3.9999726,4.0000017 0 0 0 -4,-4 z"
           style="opacity:1;vector-effect:none;fill:#000000;fill-opacity:1;fill-rule:evenodd;stroke:none;stroke-width:0.999997;stroke-linecap:butt;stroke-linejoin:miter;stroke-miterlimit:4;stroke-dasharray:none;stroke-dashoffset:0;stroke-opacity:1"
           inkscape:connector-curvature="0" />
        <path
           id="path1448"
           transform="matrix(0.26458333,0,0,0.26458333,0,-1.8097168e-5)"
           d="m 1456,686.51953 v 4 4 4 4 4 4 4 h 4 v -4 -4 -4 -4 -4 -4 h 4 v 4 4 h -2 v 4 h 2 a 4.0000017,3.9999726 0 0 0 4,-4 v -4 -4 a 3.9999726,4.0000017 0 0 0 -4,-4 h -4 z m 8,16 v 4 4 4 h 4 v -4 -4 a 3.9999726,4.0000017 0 0 0 -4,-4 z"
           style="opacity:1;vector-effect:none;fill:#000000;fill-opacity:1;fill-rule:evenodd;stroke:none;stroke-width:0.999997;stroke-linecap:butt;stroke-linejoin:miter;stroke-miterlimit:4;stroke-dasharray:none;stroke-dashoffset:0;stroke-opacity:1"
           inkscape:connector-curvature="0" />
        <path
           id="path1450"
           transform="matrix(0.26458333,0,0,0.26458333,0,-1.8097168e-5)"
           d="m 1472,686.51953 v 4 4 4 4 4 4 4 h 4 4 a 4.0000017,3.9999726 0 0 0 4,-4 v -4 -4 -4 -4 -4 a 3.9999726,4.0000017 0 0 0 -4,-4 h -4 z m 4,4 h 4 v 4 4 4 4 4 h -4 v -4 -4 -4 -4 z"
           style="opacity:1;vector-effect:none;fill:#000000;fill-opacity:1;fill-rule:evenodd;stroke:none;stroke-width:0.999997;stroke-linecap:butt;stroke-linejoin:miter;stroke-miterlimit:4;stroke-dasharray:none;stroke-dashoffset:0;stroke-opacity:1"
           inkscape:connector-curvature="0" />
      </g>
    </g>
    <g
       id="g1478"
       transform="matrix(2,0,0,2,-638.32617,-230.08448)">
      <g
         id="g1464"
         style="fill:none;stroke:#000000;stroke-width:1.5875;stroke-miterlimit:4;stroke-dasharray:none;stroke-opacity:1"
         transform="translate(-15.874998)">
        <path
           style="fill:none;fill-opacity:1;stroke:#000000;stroke-width:1.5875;stroke-miterlimit:4;stroke-dasharray:none;stroke-opacity:1;paint-order:markers stroke fill"
           d="m 371.475,185.08122 v -3.43958 a 1.5875011,1.7197908 0 0 1 1.5875,1.71979 1.5875011,1.7197908 0 0 1 -1.5875,1.71979 z"
           id="path1456"
           inkscape:connector-curvature="0" />
        <path
           inkscape:connector-curvature="0"
           id="path1458"
           d="m 366.18333,186.93331 h 3.43958 a 1.7197908,1.5875014 0 0 1 -1.71979,1.5875 1.7197908,1.5875014 0 0 1 -1.71979,-1.5875 z"
           style="fill:none;fill-opacity:1;stroke:#000000;stroke-width:1.5875;stroke-miterlimit:4;stroke-dasharray:none;stroke-opacity:1;paint-order:markers stroke fill"
           inkscape:transform-center-x="9.4366889"
           inkscape:transform-center-y="0.963843" />
        <ellipse
           style="fill:none;fill-opacity:1;stroke:#000000;stroke-width:1.5875;stroke-miterlimit:4;stroke-dasharray:none;stroke-opacity:1;paint-order:markers stroke fill"
           id="ellipse1460"
           cx="371.87186"
           cy="187.33018"
           rx="1.7197924"
           ry="1.7197905" />
        <path
           inkscape:transform-center-y="-3.3658177"
           inkscape:transform-center-x="3.4628915"
           style="fill:none;fill-opacity:1;stroke:#000000;stroke-width:1.5875;stroke-miterlimit:4;stroke-dasharray:none;stroke-opacity:1;paint-order:markers stroke fill"
           d="m 366.91403,181.81109 3.64821,3.64822 a 2.5796862,2.3812521 45 0 1 -3.5079,-0.14031 2.5796862,2.3812521 45 0 1 -0.14031,-3.50791 z"
           id="path1462"
           inkscape:connector-curvature="0" />
      </g>
      <g
         id="g1476"
         transform="translate(-15.875)">
        <path
           inkscape:connector-curvature="0"
           id="path1468"
           d="m 371.475,185.08122 v -3.43958 a 1.5875011,1.7197908 0 0 1 1.5875,1.71979 1.5875011,1.7197908 0 0 1 -1.5875,1.71979 z"
           style="fill:#fa4f23;fill-opacity:1;stroke:none;stroke-width:0.826161;stroke-miterlimit:4;stroke-dasharray:none;stroke-opacity:1;paint-order:markers stroke fill" />
        <path
           inkscape:transform-center-y="0.963843"
           inkscape:transform-center-x="9.4366889"
           style="fill:#b529a3;fill-opacity:1;stroke:none;stroke-width:0.826161;stroke-miterlimit:4;stroke-dasharray:none;stroke-opacity:1;paint-order:markers stroke fill"
           d="m 366.18333,186.93331 h 3.43958 a 1.7197908,1.5875014 0 0 1 -1.71979,1.5875 1.7197908,1.5875014 0 0 1 -1.71979,-1.5875 z"
           id="path1470"
           inkscape:connector-curvature="0" />
        <ellipse
           ry="1.7197905"
           rx="1.7197924"
           cy="187.33018"
           cx="371.87186"
           id="ellipse1472"
           style="fill:#ffffff;fill-opacity:1;stroke:none;stroke-width:0.859896;stroke-miterlimit:4;stroke-dasharray:none;stroke-opacity:1;paint-order:markers stroke fill" />
        <path
           inkscape:connector-curvature="0"
           id="path1474"
           d="m 366.91403,181.81109 3.64821,3.64822 a 2.5796862,2.3812521 45 0 1 -3.5079,-0.14031 2.5796862,2.3812521 45 0 1 -0.14031,-3.50791 z"
           style="fill:#f6be22;fill-opacity:1;stroke:none;stroke-width:1.23924;stroke-miterlimit:4;stroke-dasharray:none;stroke-opacity:1;paint-order:markers stroke fill"
           inkscape:transform-center-x="3.4628915"
           inkscape:transform-center-y="-3.3658177" />
      </g>
    </g>
  </g>
</svg>
